# xmcd CD database file
#
# Track frame offsets:
#	150
#	13904
#	24732
#	37423
#	48690
#	59477
#	69961
#	81321
#	101322
#	113214
#	125027
#	136668
#	148201
#	162425
#	174729
#	190273
#	208397
#	227144
#	243214
#	253971
#	262698
#	275508
#	289127
#	305732
#
# Disc length: 4241 seconds
#
# Revision: 0
# Processed by: cddbd v1.5.2PL0 Copyright (c) Steve Scherf et al.
# Submitted via: Feurio! 1.68 - http://www.feurio.com
#
DISCID=7a108f18
DTITLE=Various Artist - Tuff Stuff Dusty Stepper
DYEAR=1900
DGENRE=R&B
TTITLE0=Edwin Starr - There You Go
TTITLE1=Leon Haywood - It's Got To Be Mellow
TTITLE2=Nolan Chance - I'll Never Forget You
TTITLE3=The Admirations - Wait Till I Get To Know You
TTITLE4=The Delfonics - He Don't Really Love You
TTITLE5=Little Anthony and The Imperials - If I Love You
TTITLE6=The Contours - That Day When She Needed Me
TTITLE7=The Montclairs - Make Up For Lost Time
TTITLE8=Barbara and The Uniques - There It Goes Again
TTITLE9=DEon Jackson - Ooh Baby
TTITLE10=The Isley Brothers - Write To Me
TTITLE11=Holly Maxwell - One Thin Dime
TTITLE12=Martha and The Vandellas - Love, Guess Who
TTITLE13=The C.O.D.'s - Michael The Lover
TTITLE14=The Bar Kays - Attitudes
TTITLE15=Sting - Do It In The Shower
TTITLE16=Eddie Kendircks - Never Gonna Leave You
TTITLE17=The Persuaders - Some Guys Have All The Luck
TTITLE18=Marvin Gaye and Kim Wesson - I Want You Round
TTITLE19=Little Jimmy Grandy - I'm Not Like The Others
TTITLE20=The Originals - Put A Crush On Me
TTITLE21=The Fantastic Four - Girl Have Pity
TTITLE22=Love Committee - Heaven Only Knows
TTITLE23=Art Reynolds Singes - Glory, Glory, Hallelujah
EXTD=
EXTT0=
EXTT1=
EXTT2=
EXTT3=
EXTT4=
EXTT5=
EXTT6=
EXTT7=
EXTT8=
EXTT9=
EXTT10=
EXTT11=
EXTT12=
EXTT13=
EXTT14=
EXTT15=
EXTT16=
EXTT17=
EXTT18=
EXTT19=
EXTT20=
EXTT21=
EXTT22=
EXTT23=
PLAYORDER=
